<svg width="24" height="24" viewBox="0 0 24 24" fill="none" xmlns="http://www.w3.org/2000/svg">
<path d="M6.375 6C6.16875 6 6 6.16875 6 6.375V15.8156C6 15.9891 6.14062 16.125 6.30937 16.125C6.39375 16.125 6.46875 16.0922 6.52969 16.0359L9.40781 13.1578C9.69844 12.8672 10.1766 12.8672 10.4672 13.1578L15.75 18.4406C15.9469 18.6375 16.2188 18.75 16.5 18.75C16.7812 18.75 17.0531 18.6375 17.25 18.4406L18.4406 17.25C18.6375 17.0531 18.75 16.7812 18.75 16.5C18.75 16.2188 18.6375 15.9469 18.4406 15.75L13.1578 10.4672C13.0172 10.3266 12.9375 10.1344 12.9375 9.9375C12.9375 9.74062 13.0172 9.54844 13.1578 9.40781L16.0359 6.52969C16.0922 6.47344 16.125 6.39375 16.125 6.30938C16.125 6.13594 15.9844 6 15.8156 6H6.375ZM4.5 6.375C4.5 5.33906 5.33906 4.5 6.375 4.5H15.8156C16.8141 4.5 17.625 5.31094 17.625 6.30938C17.625 6.7875 17.4328 7.25156 17.0953 7.58906L14.7469 9.9375L19.5 14.6906C19.9781 15.1687 20.25 15.8203 20.25 16.5C20.25 17.1797 19.9781 17.8313 19.5 18.3094L18.3094 19.5C17.8313 19.9781 17.1797 20.25 16.5 20.25C15.8203 20.25 15.1687 19.9781 14.6906 19.5L9.9375 14.7469L7.58906 17.0953C7.25156 17.4328 6.79219 17.625 6.30937 17.625C5.31094 17.625 4.5 16.8141 4.5 15.8156V6.375Z" fill="currentColor"/>
</svg>
