<svg width="24" height="24" viewBox="0 0 24 24" fill="none" xmlns="http://www.w3.org/2000/svg">
<path d="M1.5 2.25C1.5 1.8375 1.1625 1.5 0.75 1.5C0.3375 1.5 0 1.8375 0 2.25V18.75C0 20.8219 1.67812 22.5 3.75 22.5H23.25C23.6625 22.5 24 22.1625 24 21.75C24 21.3375 23.6625 21 23.25 21H3.75C2.50781 21 1.5 19.9922 1.5 18.75V2.25ZM22.2797 7.27969C22.5703 6.98906 22.5703 6.51094 22.2797 6.22031C21.9891 5.92969 21.5109 5.92969 21.2203 6.22031L15 12.4406L11.0297 8.47031C10.7391 8.17969 10.2609 8.17969 9.97031 8.47031L4.72031 13.7203C4.42969 14.0109 4.42969 14.4891 4.72031 14.7797C5.01094 15.0703 5.48906 15.0703 5.77969 14.7797L10.5 10.0594L14.4703 14.0297C14.7609 14.3203 15.2391 14.3203 15.5297 14.0297L22.2797 7.27969Z" fill="currentColor"/>
</svg>
