<svg width="24" height="24" viewBox="0 0 24 24" fill="none" xmlns="http://www.w3.org/2000/svg">
<path d="M1.2 8.9999C1.2 6.1949 3.96375 3.5999 7.8 3.5999C11.6363 3.5999 14.4 6.1949 14.4 8.9999C14.4 11.8049 11.6363 14.3999 7.8 14.3999C7.22625 14.3999 6.6525 14.3287 6.06375 14.2124C5.9325 14.1862 5.7975 14.2049 5.68125 14.2649C5.4525 14.3812 5.23125 14.4899 5.00625 14.5912C3.94125 15.0749 2.74875 15.4574 1.575 15.5662C2.13375 14.8537 2.58 14.0774 2.985 13.3199C3.10875 13.0912 3.07125 12.8099 2.89125 12.6224C1.875 11.5574 1.2 10.3912 1.2 8.9999ZM7.8 2.3999C3.49125 2.3999 0 5.35865 0 8.9999C0 10.6574 0.7425 12.0037 1.725 13.1249C1.28625 13.9124 0.825 14.6474 0.24375 15.2812L0.24 15.2849C-0.00375 15.5474 -0.0675 15.9262 0.075 16.2524C0.2175 16.5862 0.54 16.7999 0.9 16.7999C2.5125 16.7999 4.14375 16.3012 5.50125 15.6862C5.685 15.6037 5.86125 15.5174 6.0375 15.4312C6.61125 15.5362 7.19625 15.6037 7.8 15.6037C12.1088 15.6037 15.6 12.6449 15.6 9.00365C15.6 5.3624 12.1088 2.3999 7.8 2.3999ZM16.7775 8.41865C20.31 8.6624 22.8 11.1374 22.8 13.7999C22.8 15.1912 22.125 16.3574 21.1088 17.4224C20.9288 17.6099 20.8913 17.8912 21.015 18.1199C21.4238 18.8774 21.8663 19.6499 22.425 20.3662C21.2513 20.2537 20.055 19.8712 18.9938 19.3912C18.7688 19.2899 18.5475 19.1812 18.3188 19.0649C18.1988 19.0049 18.0637 18.9862 17.9363 19.0124C17.3512 19.1287 16.7775 19.1999 16.2 19.1999C13.6425 19.1999 11.565 18.0487 10.4587 16.4512C10.0463 16.5637 9.6225 16.6462 9.19125 16.7062C10.4625 18.8924 13.1213 20.3999 16.2 20.3999C16.8038 20.3999 17.3888 20.3324 17.9625 20.2274C18.135 20.3137 18.315 20.3999 18.4988 20.4824C19.8563 21.1012 21.4875 21.5999 23.1 21.5999C23.46 21.5999 23.7825 21.3862 23.925 21.0562C24.0675 20.7299 24 20.3474 23.76 20.0887L23.7563 20.0849C23.175 19.4474 22.7138 18.7162 22.275 17.9287C23.2575 16.8074 24 15.4612 24 13.8037C24 10.2637 20.7075 7.3724 16.5675 7.21115C16.6725 7.60115 16.7437 8.00615 16.7775 8.4224V8.41865Z" fill="currentColor"/>
</svg>
