<svg width="24" height="24" viewBox="0 0 24 24" fill="none" xmlns="http://www.w3.org/2000/svg">
<g clip-path="url(#clip0_550_23248)">
<path d="M9.82031 3.1875C10.0688 2.21719 10.95 1.5 12 1.5C13.05 1.5 13.9312 2.21719 14.1797 3.1875C14.2641 3.52031 14.5641 3.75 14.9062 3.75H15.75C16.1625 3.75 16.5 4.0875 16.5 4.5V6H12H7.5V4.5C7.5 4.0875 7.8375 3.75 8.25 3.75H9.09375C9.43594 3.75 9.73594 3.52031 9.82031 3.1875ZM12 0C10.4625 0 9.14062 0.928125 8.56406 2.25H8.25C7.27031 2.25 6.43594 2.87812 6.12656 3.75H6C4.34531 3.75 3 5.09531 3 6.75V21C3 22.6547 4.34531 24 6 24H18C19.6547 24 21 22.6547 21 21V6.75C21 5.09531 19.6547 3.75 18 3.75H17.8734C17.5641 2.87812 16.7297 2.25 15.75 2.25H15.4359C14.8594 0.928125 13.5375 0 12 0ZM18 5.25C18.8297 5.25 19.5 5.92031 19.5 6.75V21C19.5 21.8297 18.8297 22.5 18 22.5H6C5.17031 22.5 4.5 21.8297 4.5 21V6.75C4.5 5.92031 5.17031 5.25 6 5.25V6C6 6.82969 6.67031 7.5 7.5 7.5H12H16.5C17.3297 7.5 18 6.82969 18 6V5.25ZM12.75 3.75C12.75 3.55109 12.671 3.36032 12.5303 3.21967C12.3897 3.07902 12.1989 3 12 3C11.8011 3 11.6103 3.07902 11.4697 3.21967C11.329 3.36032 11.25 3.55109 11.25 3.75C11.25 3.94891 11.329 4.13968 11.4697 4.28033C11.6103 4.42098 11.8011 4.5 12 4.5C12.1989 4.5 12.3897 4.42098 12.5303 4.28033C12.671 4.13968 12.75 3.94891 12.75 3.75ZM11.0297 11.0297C11.3203 10.7391 11.3203 10.2609 11.0297 9.97031C10.7391 9.67969 10.2609 9.67969 9.97031 9.97031L8.25 11.6906L7.65469 11.0953C7.36406 10.8047 6.88594 10.8047 6.59531 11.0953C6.30469 11.3859 6.30469 11.8641 6.59531 12.1547L7.72031 13.2797C8.01094 13.5703 8.48906 13.5703 8.77969 13.2797L11.0297 11.0297ZM12 12.75C12 13.1625 12.3375 13.5 12.75 13.5H15.75C16.1625 13.5 16.5 13.1625 16.5 12.75C16.5 12.3375 16.1625 12 15.75 12H12.75C12.3375 12 12 12.3375 12 12.75ZM10.5 17.25C10.5 17.6625 10.8375 18 11.25 18H15.75C16.1625 18 16.5 17.6625 16.5 17.25C16.5 16.8375 16.1625 16.5 15.75 16.5H11.25C10.8375 16.5 10.5 16.8375 10.5 17.25ZM8.25 18.375C8.54837 18.375 8.83452 18.2565 9.0455 18.0455C9.25647 17.8345 9.375 17.5484 9.375 17.25C9.375 16.9516 9.25647 16.6655 9.0455 16.4545C8.83452 16.2435 8.54837 16.125 8.25 16.125C7.95163 16.125 7.66548 16.2435 7.4545 16.4545C7.24353 16.6655 7.125 16.9516 7.125 17.25C7.125 17.5484 7.24353 17.8345 7.4545 18.0455C7.66548 18.2565 7.95163 18.375 8.25 18.375Z" fill="currentColor"/>
</g>
<defs>
<clipPath id="clip0_550_23248">
<rect width="24" height="24" fill="white"/>
</clipPath>
</defs>
</svg>
