<svg width="24" height="24" viewBox="0 0 24 24" fill="none" xmlns="http://www.w3.org/2000/svg">
<path d="M18 9.5999V9.62615C18.1988 9.6074 18.3975 9.5999 18.6 9.5999C18.8025 9.5999 19.0013 9.6074 19.2 9.62615V9.5999C19.2 8.27615 18.1238 7.1999 16.8 7.1999H2.4C1.07625 7.1999 0 8.27615 0 9.5999V19.1999C0 20.5237 1.07625 21.5999 2.4 21.5999H14.805C14.3212 21.2587 13.8863 20.8537 13.5075 20.3999H2.4C1.73625 20.3999 1.2 19.8637 1.2 19.1999V9.5999C1.2 8.93615 1.73625 8.3999 2.4 8.3999H16.8C17.4638 8.3999 18 8.93615 18 9.5999ZM16.8 4.7999H2.4C2.07 4.7999 1.8 5.0699 1.8 5.3999C1.8 5.7299 2.07 5.9999 2.4 5.9999H16.8C17.13 5.9999 17.4 5.7299 17.4 5.3999C17.4 5.0699 17.13 4.7999 16.8 4.7999ZM15 2.3999H4.2C3.87 2.3999 3.6 2.6699 3.6 2.9999C3.6 3.3299 3.87 3.5999 4.2 3.5999H15C15.33 3.5999 15.6 3.3299 15.6 2.9999C15.6 2.6699 15.33 2.3999 15 2.3999ZM20.85 19.7474C20.2013 20.1599 19.4288 20.3999 18.6 20.3999C17.7712 20.3999 16.9988 20.1599 16.35 19.7474C16.6425 19.4062 17.0775 19.1999 17.5425 19.1999H19.6575C20.1225 19.1999 20.5538 19.4062 20.85 19.7474ZM21.7612 18.9674C21.2437 18.3637 20.4788 17.9999 19.6575 17.9999H17.5425C16.725 17.9999 15.96 18.3599 15.4388 18.9674C14.7938 18.2287 14.4 17.2574 14.4 16.1999C14.4 13.8787 16.2788 11.9999 18.6 11.9999C20.9213 11.9999 22.8 13.8787 22.8 16.1999C22.8 17.2574 22.4062 18.2287 21.7612 18.9674ZM24 16.1999C24 14.7677 23.4311 13.3942 22.4184 12.3815C21.4057 11.3688 20.0322 10.7999 18.6 10.7999C17.1678 10.7999 15.7943 11.3688 14.7816 12.3815C13.7689 13.3942 13.2 14.7677 13.2 16.1999C13.2 17.6321 13.7689 19.0056 14.7816 20.0183C15.7943 21.031 17.1678 21.5999 18.6 21.5999C20.0322 21.5999 21.4057 21.031 22.4184 20.0183C23.4311 19.0056 24 17.6321 24 16.1999ZM18.6 14.3999C18.8387 14.3999 19.0676 14.4947 19.2364 14.6635C19.4052 14.8323 19.5 15.0612 19.5 15.2999C19.5 15.5386 19.4052 15.7675 19.2364 15.9363C19.0676 16.1051 18.8387 16.1999 18.6 16.1999C18.3613 16.1999 18.1324 16.1051 17.9636 15.9363C17.7948 15.7675 17.7 15.5386 17.7 15.2999C17.7 15.0612 17.7948 14.8323 17.9636 14.6635C18.1324 14.4947 18.3613 14.3999 18.6 14.3999ZM18.6 17.3999C19.157 17.3999 19.6911 17.1787 20.0849 16.7848C20.4788 16.391 20.7 15.8569 20.7 15.2999C20.7 14.7429 20.4788 14.2088 20.0849 13.815C19.6911 13.4212 19.157 13.1999 18.6 13.1999C18.043 13.1999 17.5089 13.4212 17.1151 13.815C16.7212 14.2088 16.5 14.7429 16.5 15.2999C16.5 15.8569 16.7212 16.391 17.1151 16.7848C17.5089 17.1787 18.043 17.3999 18.6 17.3999Z" fill="currentColor"/>
</svg>
