<svg width="24" height="24" viewBox="0 0 24 24" fill="none" xmlns="http://www.w3.org/2000/svg">
<path d="M3.6 5.3999C3.6 4.92251 3.78964 4.46468 4.12721 4.12711C4.46477 3.78954 4.92261 3.5999 5.4 3.5999C5.87739 3.5999 6.33523 3.78954 6.67279 4.12711C7.01036 4.46468 7.2 4.92251 7.2 5.3999C7.2 5.87729 7.01036 6.33513 6.67279 6.67269C6.33523 7.01026 5.87739 7.1999 5.4 7.1999C4.92261 7.1999 4.46477 7.01026 4.12721 6.67269C3.78964 6.33513 3.6 5.87729 3.6 5.3999ZM8.4 5.3999C8.4 4.60425 8.08393 3.84119 7.52132 3.27858C6.95871 2.71597 6.19565 2.3999 5.4 2.3999C4.60435 2.3999 3.84129 2.71597 3.27868 3.27858C2.71607 3.84119 2.4 4.60425 2.4 5.3999C2.4 6.19555 2.71607 6.95861 3.27868 7.52122C3.84129 8.08383 4.60435 8.3999 5.4 8.3999C6.19565 8.3999 6.95871 8.08383 7.52132 7.52122C8.08393 6.95861 8.4 6.19555 8.4 5.3999ZM12 8.3999C12.6365 8.3999 13.247 8.65276 13.6971 9.10285C14.1471 9.55293 14.4 10.1634 14.4 10.7999C14.4 11.4364 14.1471 12.0469 13.6971 12.497C13.247 12.947 12.6365 13.1999 12 13.1999C11.3635 13.1999 10.753 12.947 10.3029 12.497C9.85286 12.0469 9.6 11.4364 9.6 10.7999C9.6 10.1634 9.85286 9.55293 10.3029 9.10285C10.753 8.65276 11.3635 8.3999 12 8.3999ZM12 14.3999C12.4728 14.3999 12.9409 14.3068 13.3777 14.1259C13.8144 13.945 14.2113 13.6798 14.5456 13.3455C14.8799 13.0112 15.1451 12.6143 15.326 12.1776C15.5069 11.7408 15.6 11.2727 15.6 10.7999C15.6 10.3271 15.5069 9.85901 15.326 9.42224C15.1451 8.98547 14.8799 8.58861 14.5456 8.25432C14.2113 7.92003 13.8144 7.65485 13.3777 7.47394C12.9409 7.29302 12.4728 7.1999 12 7.1999C11.5272 7.1999 11.0591 7.29302 10.6223 7.47394C10.1856 7.65485 9.78871 7.92003 9.45442 8.25432C9.12012 8.58861 8.85495 8.98547 8.67403 9.42224C8.49312 9.85901 8.4 10.3271 8.4 10.7999C8.4 11.2727 8.49312 11.7408 8.67403 12.1776C8.85495 12.6143 9.12012 13.0112 9.45442 13.3455C9.78871 13.6798 10.1856 13.945 10.6223 14.1259C11.0591 14.3068 11.5272 14.3999 12 14.3999ZM9.79875 16.7999H14.2013C16.2338 16.7999 17.8913 18.3937 17.9963 20.3999H6.00375C6.10875 18.3937 7.76625 16.7999 9.79875 16.7999ZM9.79875 15.5999C7.03875 15.5999 4.8 17.8387 4.8 20.5987C4.8 21.1499 5.24625 21.5999 5.80125 21.5999H18.1987C18.75 21.5999 19.2 21.1537 19.2 20.5987C19.2 17.8387 16.9613 15.5999 14.2013 15.5999H9.79875ZM19.2 3.5999C19.6774 3.5999 20.1352 3.78954 20.4728 4.12711C20.8104 4.46468 21 4.92251 21 5.3999C21 5.87729 20.8104 6.33513 20.4728 6.67269C20.1352 7.01026 19.6774 7.1999 19.2 7.1999C18.7226 7.1999 18.2648 7.01026 17.9272 6.67269C17.5896 6.33513 17.4 5.87729 17.4 5.3999C17.4 4.92251 17.5896 4.46468 17.9272 4.12711C18.2648 3.78954 18.7226 3.5999 19.2 3.5999ZM19.2 8.3999C19.9956 8.3999 20.7587 8.08383 21.3213 7.52122C21.8839 6.95861 22.2 6.19555 22.2 5.3999C22.2 4.60425 21.8839 3.84119 21.3213 3.27858C20.7587 2.71597 19.9956 2.3999 19.2 2.3999C18.4044 2.3999 17.6413 2.71597 17.0787 3.27858C16.5161 3.84119 16.2 4.60425 16.2 5.3999C16.2 6.19555 16.5161 6.95861 17.0787 7.52122C17.6413 8.08383 18.4044 8.3999 19.2 8.3999ZM19.8 10.7999C21.4575 10.7999 22.8 12.1424 22.8 13.7999C22.8 14.1299 23.07 14.3999 23.4 14.3999C23.73 14.3999 24 14.1299 24 13.7999C24 11.4787 22.1213 9.5999 19.8 9.5999H16.65C16.7475 9.9824 16.8 10.3874 16.8 10.7999H19.8ZM7.2 10.7999C7.2 10.3874 7.2525 9.9824 7.35 9.5999H4.2C1.87875 9.5999 0 11.4787 0 13.7999C0 14.1299 0.27 14.3999 0.6 14.3999C0.93 14.3999 1.2 14.1299 1.2 13.7999C1.2 12.1424 2.5425 10.7999 4.2 10.7999H7.2Z" fill="currentColor"/>
</svg>
